/* XPM */
static char *a959b5a21c85468580f17cd9adb85a4cim6yaC0veVcFBguv[] = {
/* columns rows colors chars-per-pixel */
"64 64 4 1 ",
"  c #663931",
". c #6DC05F",
"X c #F2915F",
"o c #FBD663",
/* pixels */
"................................................................",
"................................................................",
"................................................................",
"................................................................",
"................................................................",
"................................................................",
"................................................................",
"................................................................",
"................................................................",
"................................................................",
"................................................................",
"................................................................",
"................................................................",
"................................................................",
"................................................................",
"................................................................",
"................................................................",
"........................    ....................................",
"......................      ....................................",
"....................        ....................................",
"...................         ....................................",
"..................         .....................................",
".................        Xo  ...................................",
".................      XXoooo ..................................",
".................     Xooooooo  ................................",
".................    Xooooooooo     .....     ..................",
".................... ooooooooooooooo     ooooo .................",
".................... oooooooooXooooooooooooooo .................",
"................... ooooooooooXXoooooooooooooo .................",
"................... oooooooooo  XXoooooooooooo .................",
"................... oooooooooooo XXXoooooooooo .................",
".................. ooooooooXooooo   XXXXXXXXX ..................",
".................. ooooooooXXooooooo   XXXXX ...................",
".................. ooooooooXXoooooooooo        .................",
".................. ooooooooo Xooooooooooooooooo ................",
".................. ooooooooooXXXoooooooooooooooo ...............",
".................. oooooooooo XXXooooooooooooooo ...............",
".................. ooooooooooo XXXXXXXoooooooXXX ...............",
"................... oooooooooooo XXXXXXXXXXXX   ................",
"................... ooooooooooooo            oo ................",
"................... oooooooooooooooooooooooooooo ...............",
".................... oooooooooooooooooooooooooo ................",
".................... ooooooooooooooooooooooooo  ................",
"..................... oooooooooooooooooooooXX ..................",
"...................... ooooooooooooooooooXXXX ..................",
"......................   XooooooooooooXXXXX  ...................",
"........................  XXXXXXXXXXXXXX   .....................",
".........................  XXXXXXXXXXX  ........................",
"...........................           ..........................",
"................................................................",
"................................................................",
"................................................................",
"................................................................",
"................................................................",
"................................................................",
"................................................................",
"................................................................",
"................................................................",
"................................................................",
"................................................................",
"................................................................",
"................................................................",
"................................................................",
"................................................................"
};
