/* XPM */
static char *_bcbfebb88e84344fb302bdac974371e021CeXGfhe5ENiiN[] = {
/* columns rows colors chars-per-pixel */
"64 64 4 1 ",
"  c #6B3E5D",
". c #207D42",
"X c #8F563B",
"o c #6DC05F",
/* pixels */
"oooooooooooooooooooooooooooooooooooooooooooooooooooooooooooooooo",
"oooooooooooooooooooooooooooooooooooooooooooooooooooooooooooooooo",
"oooooooooooooooooooooooooooooooooooooooooooooooooooooooooooooooo",
"oooooooooooooooooooooooooooooooooooooooooooooooooooooooooooooooo",
"ooooooooooooooooooooooooooooo..ooooooooooooooooooooooooooooooooo",
"oooooooooooooooooooooooooooo...ooooooooooo.ooooooooooooooooooooo",
"oooooooooooooooooooooooooooo....oooooooo...ooooooooooooooooooooo",
"ooooooooooooooooooooooooooo.....ooooooo....ooooooooooooooooooooo",
"oooooooooooooooooooooooooo.......ooooo.....ooooooooooooooooooooo",
"oooooooooooooooooooooooooo.......oooo......ooooooooooooooooooooo",
"oooooooooooo..ooooooooooo.........oo......oooooooooooooooooooooo",
"oooooooooooo....oooooooo..........o.......oooooooooooooooooooooo",
"ooooooooooooo.....oooooo.............................ooooooooooo",
"oooooooooooooo......oooo..............................oooooooooo",
"ooooooooooooooo.......o..............................ooooooooooo",
"oooooooooooooooo....................................oooooooooooo",
"oooooooooooooooo...................................ooooooooooooo",
"ooooooooooooooooo................................ooooooooooooooo",
"oooooooooooooooooo..............................oooooooooooooooo",
"ooooooooooooooooooo...........................oooooooooooooooooo",
"oooooooooooooooooo...........................ooooooooooooooooooo",
"ooooooooooooooooo...........................oooooooooooooooooooo",
"ooooooooooooooooo...........................oooooooooooooooooooo",
"oooooooooooooooo............................oooooooooooooooooooo",
"ooooooooooooooo.............................oooooooooooooooooooo",
"oooooooooooooo........oo....................oooooooooooooooooooo",
"ooooooooooooo.......oooo.............o......oooooooooooooooooooo",
"ooooooooooooo.....ooooo.......X......oo.....oooooooooooooooooooo",
"oooooooooooo....ooooooo......XX......ooo....oooooooooooooooooooo",
"ooooooooooo....oooooooo.... XXXX....ooooo....ooooooooooooooooooo",
"ooooooooooo..ooooooooo....o XXXX...ooooooo...ooooooooooooooooooo",
"ooooooooooooooooooooo...ooo XXXX...ooooooo....oooooooooooooooooo",
"oooooooooooooooooooo...oooo XXXXX.Xoooooooo...oooooooooooooooooo",
"ooooooooooooooooooo...ooooo XXXXX.Xooooooooo...ooooooooooooooooo",
"ooooooooooooooooooo.ooooooo XXXXXXXoooooooooo...oooooooooooooooo",
"oooooooooooooooooooooooooo  XXXXXXXoooooooooooo.oooooooooooooooo",
"oooooooooooooooooooooooooo  XXXXXXXooooooooooooooooooooooooooooo",
"oooooooooooooooooooooooooo  XXXXXXXooooooooooooooooooooooooooooo",
"oooooooooooooooooooooooooo  XXXXXXXooooooooooooooooooooooooooooo",
"oooooooooooooooooooooooooo  XXXXXXXXoooooooooooooooooooooooooooo",
"ooooooooooooooooooooooooo   XXXXXXXXoooooooooooooooooooooooooooo",
"ooooooooooooooooooooooooo   XXXXXXXXoooooooooooooooooooooooooooo",
"ooooooooooooooooooooooooo   XXXXXXXXoooooooooooooooooooooooooooo",
"oooooooooooooooooooooooo   XXXXXXXXXoooooooooooooooooooooooooooo",
"oooooooooooooooooooooooo   XXXXXXXXXoooooooooooooooooooooooooooo",
"oooooooooooooooooooooooo   XXXXXXXXXoooooooooooooooooooooooooooo",
"ooooooooooooooooooooooo    XXXXXXXXXoooooooooooooooooooooooooooo",
"ooooooooooooooooooooooo    XXXXXXXXXXooooooooooooooooooooooooooo",
"ooooooooooooooooooooooo   XXXXXXXXXXXooooooooooooooooooooooooooo",
"ooooooooooooooooooooooo   XXXXXXXXXXXooooooooooooooooooooooooooo",
"ooooooooooooooooooooooo   XXXXXXXXXXXXoooooooooooooooooooooooooo",
"oooooooooooooooooooooo    XXXXXXXXXXXXoooooooooooooooooooooooooo",
"oooooooooooooooooooooo   XXXXXXXXXXXXXXooooooooooooooooooooooooo",
"ooooooooooooooooooooo    XXXXXXXXXXXXXXooooooooooooooooooooooooo",
"ooooooooooooooooooooo    XXXXXXXXXXXXXXooooooooooooooooooooooooo",
"ooooooooooooooooooooo    XXXXXXXXXXXXXXXoooooooooooooooooooooooo",
"ooooooooooooooooooooo    XXXXXXXXXXXXXXXoooooooooooooooooooooooo",
"ooooooooooooooooooooooo  XXXXXXXXXXXXXXXoooooooooooooooooooooooo",
"oooooooooooooooooooooooooooooXXXXXXXXooooooooooooooooooooooooooo",
"oooooooooooooooooooooooooooooooooooooooooooooooooooooooooooooooo",
"oooooooooooooooooooooooooooooooooooooooooooooooooooooooooooooooo",
"oooooooooooooooooooooooooooooooooooooooooooooooooooooooooooooooo",
"oooooooooooooooooooooooooooooooooooooooooooooooooooooooooooooooo",
"oooooooooooooooooooooooooooooooooooooooooooooooooooooooooooooooo"
};
