/* XPM */
static char *_07aa83e9a314b2d9b31d5df2945a53fWRCetVMctZJpjXZz[] = {
/* columns rows colors chars-per-pixel */
"64 64 160 2 ",
"   c #350297",
".  c #34029B",
"X  c #38039E",
"o  c #3501A3",
"O  c #3901A5",
"+  c #3602AA",
"@  c #3B02AB",
"#  c #3503B0",
"$  c #3E01B1",
"%  c #4201AF",
"&  c #4401B3",
"*  c #4A01B6",
"=  c #4601BA",
"-  c #4A01BB",
";  c #5203B7",
":  c #5202BD",
">  c #5A04BE",
",  c #5908BF",
"<  c #4E03C1",
"1  c #5404C2",
"2  c #5A06C4",
"3  c #5608C4",
"4  c #5B09C6",
"5  c #5B07C8",
"6  c #5508C8",
"7  c #5D0AC9",
"8  c #6106C5",
"9  c #6807C6",
"0  c #620AC6",
"q  c #6A0EC7",
"w  c #6206C9",
"e  c #630AC9",
"r  c #6A0FCC",
"t  c #6A0FCE",
"y  c #680ECD",
"u  c #6E0DCC",
"i  c #6F0ECD",
"p  c #6E0DCE",
"a  c #6A0ECC",
"s  c #6B10C7",
"d  c #6712CC",
"f  c #6910CA",
"g  c #6A11CB",
"h  c #6911C8",
"j  c #6F11C9",
"k  c #6910CC",
"l  c #6B10CD",
"z  c #6910CE",
"x  c #6B10CF",
"c  c #6A11CF",
"v  c #6B12CE",
"b  c #6C10CD",
"n  c #6C12CC",
"m  c #6C11CE",
"M  c #6D11CE",
"N  c #6A14CF",
"B  c #6B11CD",
"V  c #7313CF",
"C  c #7116CD",
"Z  c #7216CF",
"A  c #7517CF",
"S  c #7416CF",
"D  c #7216CF",
"F  c #7816CF",
"G  c #771BC8",
"H  c #7419CE",
"J  c #7819CF",
"K  c #791ACE",
"L  c #690FD0",
"P  c #6811D1",
"I  c #6B10D1",
"U  c #6B12D0",
"Y  c #6F13D0",
"T  c #6D12D1",
"R  c #6E18D3",
"E  c #7117D1",
"W  c #7216D1",
"Q  c #7414D0",
"!  c #7415D1",
"~  c #7515D1",
"^  c #7714D1",
"/  c #7714D3",
"(  c #7516D2",
")  c #7717D3",
"_  c #7316D2",
"`  c #7916D1",
"'  c #7618D0",
"]  c #761AD5",
"[  c #771BD4",
"{  c #7519D3",
"}  c #7919D3",
"|  c #781AD3",
" . c #781DD2",
".. c #7B1BD5",
"X. c #781DD4",
"o. c #7A1CD5",
"O. c #791ED5",
"+. c #7A1BD4",
"@. c #7518D8",
"#. c #7B1CD9",
"$. c #7F24D6",
"%. c #7D21DA",
"&. c #871FD4",
"*. c #811EDB",
"=. c #8323D6",
"-. c #8B2ED7",
";. c #8425DA",
":. c #8925DB",
">. c #8529DC",
",. c #8A29DB",
"<. c #8B2ADB",
"1. c #8B2DD9",
"2. c #8B2DDB",
"3. c #8A2EDB",
"4. c #8E2BDD",
"5. c #8B2DDD",
"6. c #8A2CDC",
"7. c #8E2DDF",
"8. c #8C2EDE",
"9. c #8C2CDD",
"0. c #902DDF",
"q. c #8D31DD",
"w. c #9233DD",
"e. c #9837DF",
"r. c #953ADE",
"t. c #993CDE",
"y. c #862BE0",
"u. c #8C2EE1",
"i. c #902DE0",
"p. c #912EE0",
"a. c #8E31E1",
"s. c #9130E2",
"d. c #9434E2",
"f. c #9B35E1",
"g. c #963AE2",
"h. c #9A3DE3",
"j. c #9B3DEA",
"k. c #A23BE4",
"l. c #9B41DF",
"z. c #9944DF",
"x. c #9841DE",
"c. c #A451DF",
"v. c #9C42E0",
"b. c #9D43E1",
"n. c #9B46E1",
"m. c #9F45E3",
"M. c #9B40E5",
"N. c #9F44E7",
"B. c #9D42E6",
"V. c #9C41EB",
"C. c #A045E2",
"Z. c #A046E4",
"A. c #A246E5",
"S. c #A345E1",
"D. c #A44BE2",
"F. c #AA4EE6",
"G. c #A247EC",
"H. c #A248E8",
"J. c #A950E6",
"K. c #AD54EA",
/* pixels */
"& & & & 4 2 4 2 N l y l n l h y 0 e 0 e 1 1 : 1 - - - - l l a n - - - - @ @ @ + i l l l V Z Z ~ & & & & @ @ @ @ @ + @ @ 7 7 4 3 ",
"& & & & 4 4 4 2 l a l y n a h y e e 0 e 1 1 1 1 - - - - l y y l - - - - @ @ @ + i y n y ~ A Z ~ & & & & @ @ @ @ @ @ @ @ 7 3 4 4 ",
"& & & & 3 4 4 4 n y l l y n y a e e e e 1 1 1 1 - - - = P q n y = - - - @ @ @ @ i l l P ~ W W ~ & & & & @ @ @ @ @ @ @ @ 4 2 2 2 ",
"@ @ % % : 2 1 1 l y n l a a a q 0 e e e < 1 1 1 - - - - N l n n - - - - @ @ @ + Y y l P W ~ ~ [ & & & & + @ @ @ @ @ @ @ 4 3 4 4 ",
"m.v.A.H.G ....O.y y n h 7.5.3.d.0 e e e @ @ @ @ @ @ O @ - = = - - - - - @ @ @ @ - - : : - - - - @ @ @ @ - - - - 0 e e e : : 1 1 ",
"M.B.v.A.~ } } O.a y a h 7.5.3.7.0 0 0 e @ @ @ @ @ @ @ @ - - - - - - - & @ @ @ @ - : : : - - - - @ @ @ @ - - - - 0 0 0 e : 1 1 - ",
"v.v.l.G.A } /  .y y j y 5.5.,.3.0 e 7 e @ @ @ @ @ @ @ @ - - - - - - - - @ @ @ @ - : - : - - - : @ @ @ O - - - - 0 0 e e : 1 1 1 ",
"n.z.C.N.A } J [ e e 9 e ,.4.7.i.e 0 0 e @ @ @ @ @ @ @ @ - * - - * - * - @ @ @ @ : : : : - - - - @ @ @ @ * - - * 0 e 0 e : : : - ",
"w.q.q.w.J O.{ ~ J.F.F.K.n W Q ~ + @ @ @ + o o O 1 1 3 : [ [ [ [ [ [ [ { * - - - l l l y [ [ [ } + @ @ + o o o o 1 : 1 1 [ O. .O.",
"w.q.q.w.J { } ) D.D.D.D.C W ~ ^ @ @ @ @ o o o O 1 : 3 : [ { { { { { [ { - - - - y l y Y { { W ^ + @ @ @ o o o o 1 : 1 : [ { ..[ ",
"d.w.w.s.J } J @.F.D.C.c.V W Z F @ @ @ @ o o o o 1 1 1 : Z ~ { ~ W { ~ [ * = = - d h n l ~ W { { @ + + @ O o o o - : : : [ { { { ",
"w.w.g.j.{ { } [ D.D.c.F.Q ~ Z { @ @ @ @ o o o + - : 1 : ) { { { J { [ { & - - = L y y q W W W ..@ + + @ o o o o 1 1 : 2 %.[ [ O.",
"* * * & Y W W [ 0 q e q % & & & & & & % e e e 9 >.;.;.;.2 1 1 4 e e 0 0 & & & & 0 e e w 5.5.5.7.e e e e & & & & o O o o 1 1 : : ",
"- - - = { Z ~ W y l y d & & & & & & & & 7 0 0 7 $.;.;.;.1 4 4 4 e e 0 e & & & & e e e e 3.4.,.3.8 e e e & & & & o O o o 1 : 1 1 ",
"- - & & { W A { q a y V & & & & = = & & w 0 8 e =.;.;.;.: 4 4 4 e 8 0 e & & & & 7 e e 0 5.4.6.-.8 0 0 7 & & & & o o O O : - - - ",
"- - - - { { { [ q n n M & & & & & & & & e w w 4 >.=.=.>.: 7 4 7 4 e e q & & & & q e e 0 a.7.0.7.8 e e e & & & & o O o o - 1 3 3 ",
"@ @ @ @ : 1 1 - . o o o @ @ @ @ 1 4 4 5 @.W W { 2 4 2 2 o o o o @ @ @ @ @ @ @ @ o o o . * - - * { W Z W > 4 4 4 @ @ @ @ O o o o ",
"@ @ @ + : : 1 - o o o . @ @ @ @ 4 4 4 4 ..A { { 2 4 3 3 o o o o @ @ @ @ @ @ @ @ o o o . - - - - { Z Z ~ 2 4 4 4 @ @ @ @ o o o o ",
"@ @ @ @ : : 1 - o o o . @ @ @ + 4 4 4 4 ~ { { { 3 4 4 3 o o o o @ @ @ @ @ @ @ @ o o o o = - = - { Z Z ~ 1 4 4 4 @ O @ @ o o o o ",
"@ @ @ @ - < < < o o o o @ @ O @ : 3 3 2 [ { W ~ 4 4 4 4 o o o o @ @ @ O @ @ @ @ o . . o - - - * { [ ~ ..2 3 4 2 @ @ @ @ o o o o ",
"& & & % & = & & o o o o 7 4 4 1 >.=.=.>.: 2 2 3 + o o o @ @ @ @ @ @ @ @ 1 1 : : @ @ @ @ @ @ @ @ - - - * #...O.O.: 4 4 7 o O o o ",
"& & & & & & & & o o o o 4 4 2 4 ;.=.=.;.1 4 2 4 o O o o @ @ @ @ @ @ @ + 1 1 : 3 @ @ @ @ @ @ @ @ = - - - ..{ { { 2 2 4 4 o o o o ",
"& & & & & & & & o o o o 4 2 2 : ;.=.=.;.2 4 2 4 o o o o @ @ @ @ @ @ @ @ 1 1 1 - @ @ @ @ @ @ @ @ = - - - ..{ [ ..1 2 4 4 o o o o ",
"& & & & & & & % o O o o 1 2 : : :.=.;.;.4 7 4 4 o o o o @ @ @ @ @ @ @ @ : - - 1 @ @ @ @ @ @ @ # - - - - *.O.....2 1 1 1 o o o o ",
"~ ~ ~ ~ 2 4 4 4 1 1 1 - g.q.d.g.s Z Z A + O @ @ o o o o * - - - - - - - 2 2 1 2 e 0 0 e & & & & @ @ @ @ 2 3 1 1 >.=.=.;.y a y i ",
"W W M W 2 4 4 7 1 1 : : g.w.d.w.Z W A W @ @ @ @ + o o o - - - - - - - - 4 4 7 e e 0 0 q & & & & @ @ + @ 4 4 4 : ;.;.;.;.q Y l a ",
"Z W Z W > 7 4 4 1 1 1 : w.q.w.w.j Z Z ~ o @ @ @ o o o o - - - - - - = - 4 7 4 4 e e 0 e & & & & @ @ @ @ 4 4 1 2 ;.;.=.;.j Q n y ",
"W Z Z W 5 1 3 3 1 1 1 : g.d.g.d.j { Z W O @ @ @ X o o o - - - - - - - - 4 3 1 1 e 8 e e % @ @ @ @ @ @ @ 3 3 1 : y.;.>.>.q y l y ",
"j j j l & & & & * - - - > 2 > 6 & & & = @ @ @ @ & & & & = & & & P i y Y e w e 8 ] ..#...A ~ ~ ~ @ @ @ @ . . . . : > : 1 2 : 4 4 ",
"a y i d & & & & - - - - 4 4 3 4 & & & & @ @ @ @ & & & & & & & & Y y l a e e e 0 } { } } A Z Z A + @ @ @ .   . . 2 2 4 2 4 7 4 4 ",
"y y q d & & & & - - - - 3 4 4 4 & & & & @ @ @ @ & & & & & & & & Y y l a w 0 e e } } } J A W Z ~ + @ @ @ . . . . 2 2 3 4 4 4 4 4 ",
"a a q y & & & & - - - - 7 4 4 2 & & & & @ @ @ @ & & & & & & & $ n T Y y 8 w 4 8 { { { J W W W ..@ @ @ @ o . . . 2 3 4 4 4 2 4 4 ",
"~ ~ Z { - < - 1 : 1 1 - 7 e 7 e - - - - & & & & & & & & @ o o o 0 e 8 2 B.h.h.h.h.h.h.j.0 8 w 0 & % % & & & & & 3 7 4 1 { ~ ..~ ",
"Z A Z { - : - : : - 1 < q e e e - - - - & & & & & & & & o o o o 0 e e w h.r.r.r.h.r.r.t.8 e e 4 & & & & & & & & 4 7 4 4 { { { { ",
"M Z Z W - : : 1 1 : 1 1 0 e e e - - - = & & & & & & & & o o o o 0 e e w t.t.r.t.t.t.t.t.8 e e e & & & & & & & & e 7 4 1 ) W { [ ",
"W W W W : : : : : : < : 8 8 2 0 * * - - & & & & & & & & o o o o 0 e e 4 h.t.t.t.t.t.t.h.2 8 8 0 & & & & & & & & 4 4 4 4 { ~ { { ",
"2 2 2 2 % & & & & & & % u.4.5.i.=.;.;.6.O @ @ @ @ @ @ $ & - - - - - - - a y y y e 0 8 2 ;.=.>.;.4 1 4 4 - - - = 1 1 1 1 ; : : : ",
"4 4 4 1 & & & & & & & @ 7.,.4.7.=.=.;.:.+ @ @ @ @ @ @ @ - - - - - - - - h l y y e e e 0 =.;.;.=.2 1 4 7 - - - - 1 1 1 1 1 3 : : ",
"4 4 4 1 & & & & & & & @ 7.,.4.,.=.=.=.:.@ @ @ @ @ @ @ O = - - - - - - - Y y a Y e e e 0 =.;.;.=.2 4 4 4 - - - - 1 1 : 1 1 1 1 1 ",
"4 4 4 1 & & % & & & & $ a.7.7.5.=.=.=.;.o o + o + @ $ @ * - - - - - - - P n y a > 8 4 2 ;.;.;.=.2 4 4 4 - - = - 1 1 1 1 1 1 1 1 ",
"& & & & @ @ @ @ X X . . : : - * >.;.=.>.{ ......% & & & & & & & 1 1 1 1 : : : : V.t.t.h.J { A ..@ @ @ @ . .   . & & & & & & & & ",
"& & & & @ @ @ + . . .   : : : - >.=.=.;.W { ~ ..& & & & & & & & 1 1 1 1 1 1 1 < t.t.r.h.{ ..} ..@ @ @ @ . . . . & & & & & & & & ",
"& & & & @ @ @ @ . . . . : : : - >.;.=.=.W W { [ & & & & & & & & 3 1 1 1 1 : - < l.t.t.r.{ ......@ @ @ @ . . . . & & & & & & & & ",
"& & & & @ @ @ o . . . o - - - - >.;.;.>.Z { Z { % @ & & & & % & : 1 1 1 : - : - V.t.t.k.J #...%.@ @ @ O   . . . @ & % % & & & & ",
"l l l l ~ ~ { } & & % & o o o o * & * = j.r.g.g.=.>.>.>.2 4 4 3 4 4 7 2 >.;.;.>.=.=.=.=.% $ & & @ @ @ O - - - & a.u.a.u.j Y n n ",
"y l y y A Z Z ~ $ % & & o O o o - - * & h.g.g.e...=.=.;.2 4 4 4 4 4 4 > ;.=.;.;.;.=.;.;.& & & & @ @ @ o - - - = 7.<.5.5.y n y a ",
"a n 0 l Z Z Z ~ $ % & & o o O O - * * & g.r.r.r...=.=.;.> 2 4 4 4 4 1 , >.;.=.;.;.;.;.;.& & & & @ @ @ O - - - - 7.7.5.3.q n l a ",
"y y h l Q { W R @ $ @ @ O . o o = - - * h.t.t.h.=.=.=.=.2 2 2 4 4 2 4 > ;.=.;.=.:.=.=.6.& & & & @ @ @ @ * - - * ,.,.5.5.h h h h ",
": 1 : : q.4.5.4.....O.O.& & & & & & & & - = = & d.4.d.d.Z ) ~ ~ ~ ) ) { 4.6.6.5.@ & & % @ @ @ @ = - - - #.#.#.O.7.6.5.5.* * - - ",
"1 1 : : 7.4.5.7.{ ......$ & & & & & & & - - - = s.q.w.w.Z W W { W { { Z 7.4.5.4.$ & & & @ @ @ + - - - -  ...} { 7.,.,.5.- - - - ",
"1 1 1 : 5.7.,.3.} { [ } & & & & & & & & = - - = g.q.w.w.Z W W W W { { Z 5.7.5.i.@ & & & @ @ @ @ - - - - O...} { <.,.5.u.- - - - ",
": : 1 : u.u.q.5.~ ~  . .$ & $ % & & & & = - - - g.g.g.d.{ ~ W ) W [ { W i.7.7.a.& & & & @ O O + - * - - ..{ } { 4.5.7.d.* - - - ",
"& & & & = = = * u.>.>.4.>.:.>.u.& & & & @ o o o - * * - 7 0 e 0 : 2 2 > % & $ $ O o o o & - - - ] [ ] { ~ { W [ - * = = @ O @ @ ",
"& & & & - - - * 7.,.<.,.$.;.;.:.% & & & o o o o = - - - 0 e e 7 1 1 1 3 & & & & o o o . - - - * [ { { W { W W { - - - - @ @ @ @ ",
"& & & & - - - & 5.,.,.1.=.=.;.:.@ & & & O o o . - - - * e e e e 1 1 4 4 & & & & o o o o - - - - [ { [ { W ~ ~ { - - - - @ @ @ @ ",
"& & & & - - = & 5.6.4.4.=.=.=.;.@ @ $ & o o O o - - - - 0 e e e 4 3 4 4 & & & & o o o . - = = & { { { W [ { [ [ - - - - @ @ @ @ ",
"- - - - & & & $ : : : * h.r.r.g.=.>.;.>.@ @ @ + @ @ @ @ 1 1 1 ; & % & & o o o o % & & % q.u.7.u.h a l Y & & & & o o o o @ $ & & ",
"- - - - = = * & 1 1 : : g.e.f.w.=.&.=.:.@ @ @ @ @ @ @ @ 1 : : 1 & & & & O o o o & & & & u.5.5.7.q y l l & & & & O . o O % % & & ",
"- - - - & & & & 1 1 : : g.e.g.r.=.;.=.:.O @ @ @ @ @ @ + 1 1 1 - & & & & . o o o & & & $ q.4.<.5.q a y n & & & & o O o o & & & & ",
"- - - - & & & & 1 1 : : j.g.g.g.$.;.;.>.o @ @ @ @ @ O @ : : : - & & & & . o o o & & & @ q.5.5.5.h n n n & & & & o o o o & & & & ",
"o o o o - - * - 1 1 1 - 7 5 2 2 W ~ W W 4 7 4 7 1 1 1 - ) Z { { e 9 9 e * - - * { ....@.Z Z A { O @ @ O o o o o % & & & % @ @ @ ",
"o o o o - - = = : 1 1 : 0 e e e W { { Z 2 4 4 3 : 1 1 - { { { { 0 e e 4 - - - -  .V W Z W Z A ) O @ @ O o o o o * & & & @ @ @ O ",
"o o O o - - - = 1 1 1 1 e 0 0 e { { { A 1 4 4 4 1 1 1 : [ W { { e e e 4 - - - - ..A Z Z W ~ W { @ @ @ @ o o o o & & & & @ @ @ @ ",
"o o o o - - - - 1 1 1 1 e 0 0 e [ { { { 1 4 4 3 3 1 1 : { { W { e q e 0 - - - - ..{ { { Z W V } @ @ @ @ o o o o & & & & @ @ @ @ "
};
