/* XPM */
static char *_4de9c6b9f484edcb736f3139b0a4672Ydn4mMTOEcZXFSE0[] = {
/* columns rows colors chars-per-pixel */
"64 64 13 1 ",
"  c #252420",
". c #744478",
"X c #75497F",
"o c #6DC05F",
"O c #8B5490",
"+ c #8F5F93",
"@ c #CF668D",
"# c #E6CC88",
"$ c #EFDE94",
"% c #DED1C8",
"& c #FAFFE1",
"* c #FFF7EC",
"= c #FFF9FF",
/* pixels */
"oooooooooooooooooooooooooooooooooooooooooooooooooooooooooooooooo",
"oooooooooooooooooooooooooooooooooooooooooooooooooooooooooooooooo",
"ooooooooooooooooooooooooooo+++oooo+++ooooooooooooooooooooooooooo",
"ooooooooooooooooooooooooooo+++oooo+++ooooooooooooooooooooooooooo",
"oooooooooooooooooooooooooooo+++oo+++oooooooooooooooooooooooooooo",
"ooooooooooooooooooooooooooooo++oo++ooooooooooooooooooooooooooooo",
"ooooooooooooooooooooooooooooo++++++ooooooooooooooooooooooooooooo",
"ooooooooooooooooooooooooooooo++++++ooooooooooooooooooooooooooooo",
"oooooooooooooooooooooooooooooo++++oooooooooooooooooooooooooooooo",
"oooooooooooooooooooooooooooooo++++oooooooooooooooooooooooooooooo",
"oooooooooooooooooooooooooooo+++++++++ooooooooooooooooooooooooooo",
"ooooooooooooooooooooooooo+++++++++++++++oooooooooooooooooooooooo",
"ooooooooooooooooooooooo+++++++++++++++++++oooooooooooooooooooooo",
"oooooooooooooooooooooo+++++++++++++++++++++ooooooooooooooooooooo",
"oooooooooooooo++++ooo+++++++++++++++++++++++oo++++oooooooooooooo",
"ooooooooooooo++++++o+++++++++++++++++++++++++++++++ooooooooooooo",
"ooooooooooooo++X++++++++++++++++++++++++++++++++X++ooooooooooooo",
"ooooooooooo++++++X++++++++++++++++++++++++++++XX+++++ooooooooooo",
"ooooooooooo++++@@XX++++++++++++++++++++++++++XX@@++++ooooooooooo",
"ooooooooooo++++@@XX++++++++++++++++++++++++++XX@@++++ooooooooooo",
"ooooooooooo++++@@XX++++++++++++++++++++++++++XX@@++++ooooooooooo",
"ooooooooooo++++@@XX++++++++++++++++++++++++++XX@@++++ooooooooooo",
"ooooooooooo++++@@XX++++$$$$$$$++++$$$$$$$++++XX@@++++ooooooooooo",
"ooooooooooo++++@@XX++$$$$$$$$$$++$$$$$$$$$$++XX@@++++ooooooooooo",
"ooooooooooo+++++@XX++$$$$$$$$$$$$$$$$$$$$$$.+X+@+++++ooooooooooo",
"ooooooooooo++++++++++$$$$$$$$$$$$$$$$$$$$$$.+X+++++++ooooooooooo",
"oooooooooooo+++++++++.$######$$$$$######$$$X++++++++oooooooooooo",
"ooooooooooooo++++o+++.$$&==  $$$$$  ==&$$$X++++o+++ooooooooooooo",
"ooooooooooooXXXXXXX++X$$&&   $$$$$   &&$$$X+++oXXXXXoooooooooooo",
"oooooooooooo+++++++Xo+X$$$$##$$$$$##$$$$$X+++XX+++++Xooooooooooo",
"oooooooo++++++++++++X++X$$#**#####**#$$$++++++++++++++++oooooooo",
"oooooo++++++++++++++++++OOOO%*%*%*%OOOOO++++++++++++++++++oooooo",
"oooo++++++++++++++++++++++++OOOOOOO+++++++++++++++++++++++++oooo",
"ooX++++++++++++++++++++++++++++++++++++++++++++++++++++++++++Xoo",
"oX++++++++++++++++++++++++++++++++++++++++++++++++++++++++++++Xo",
"oX++++++++++++++++++++++++++++++++++++++++++++++++++++++++++++Xo",
"oX++++++X++++++++++++++++++++++++++++++++++++X+++++++++X++++++Xo",
"oX+++++++X++++++++X+++++++++++++++++++++++++XX++++++++X+++++++Xo",
"oX+++++++X++++ooooXX+++++++++++++++++++++++Xooooo+++++X+++++++Xo",
"oX+++++++X+++ooooooXX++++++++++++++++++++++Xooooooooo+X+++++++Xo",
"oX+++++++XooooooooooX+++++++++$$$$++++++++XXooooooooooX+++++++Xo",
"ooXXXXXXXoooooooooooXX+++++++$$$$$$+++++++XooooooooooooXXXXXXXoo",
"oooooooooooooooooooooX++++++$$$$$$$$++++++Xooooooooooooooooooooo",
"oooooooooooooooooooooX+++++$$$$$$$$$$+++++Xooooooooooooooooooooo",
"ooooooooooooooooooooo+++++$$$$$$$$$$$$+++++ooooooooooooooooooooo",
"ooooooooooooooooooooo+++++$$$$$$$$$$$$+++++ooooooooooooooooooooo",
"ooooooooooooooooooooo+++++$$$$$$$$$$$$+++++ooooooooooooooooooooo",
"oooooooooooooooooooooo+++$$$$$$$$$$$$$$+++oooooooooooooooooooooo",
"oooooooooooooooooooo+++++$$$$$$$$$$$$$$+++++oooooooooooooooooooo",
"ooooooooooooooooo++++++++$$$$$$$$$$$$$$++++++++ooooooooooooooooo",
"ooooooooooooooo+++++++++++$$$$$$$$$$$$+++++++++++ooooooooooooooo",
"oooooooooooo++++++++++++++$$$$$$$$$$$$++++++++++++++oooooooooooo",
"oooooooo+++++++++++++++++++$$$$$$$$$$+++++++++++++++++++oooooooo",
"oooooo+++++++++++++++++++++++$$$$$$+++++++++++++++++++++++oooooo",
"ooo++++++++++++++++++++++++++++++++++++++++++++++++++++++++++ooo",
"oo++++++++++++++++++++++++++++++++++++++++++++++++++++++++++++oo",
"oo++++++++++++++++++++++++++++++++++++++++++++++++++++++++++++oo",
"oo+++++++++++++++++++++XXXXXXXXXXXXXXXXXXXX+++++++++++++++++++oo",
"oooX++++++++++++++++XXXXXXXXXXXXXXXXXXXXXXXXX+++++++++++++++Xooo",
"oooX+++++++++++++XXXXXooooooooooooooooooooXXXX++++++++++++++Xooo",
"ooooX++++++++++++XXXooooooooooooooooooooooooXXX++++++++++++Xoooo",
"ooo++++++++++++++++oooooooooooooooooooooooooo+X++++++++++++++ooo",
"oo+++++++++++++++++oooooooooooooooooooooooooo+++++++++++++++++oo",
"oooooooooooooooooooooooooooooooooooooooooooooooooooooooooooooooo"
};
